# MagicaVoxel @ ephtracy

# material
mtllib Flag_blue1.mtl
usemtl palette

# normals
vn -1 0 0
vn 1 0 0
vn 0 0 1
vn 0 0 -1
vn 0 -1 0
vn 0 1 0

# texcoords
vt 0.115234 0.5
vt 0.146484 0.5
vt 0.240234 0.5

# verts
v -2.5 0 0.5
v -2.5 0 -0.5
v -2.5 1 1.5
v -2.5 1 0.5
v -2.5 1 -0.5
v -2.5 8 1.5
v -2.5 8 0.5
v -2.5 8 -0.5
v -2.5 9 0.5
v -2.5 9 -0.5
v -0.5 0 -0.5
v -0.5 0 -1.5
v -0.5 1 -0.5
v -0.5 8 -0.5
v -0.5 9 -0.5
v -0.5 10 -0.5
v -0.5 10 -1.5
v 0.5 0 -0.5
v 0.5 0 -1.5
v 0.5 1 -0.5
v 0.5 8 -0.5
v 0.5 9 -0.5
v 0.5 10 -0.5
v 0.5 10 -1.5
v 2.5 0 0.5
v 2.5 0 -0.5
v 2.5 1 1.5
v 2.5 1 0.5
v 2.5 1 -0.5
v 2.5 8 1.5
v 2.5 8 0.5
v 2.5 8 -0.5
v 2.5 9 0.5
v 2.5 9 -0.5
v -2.5 1 1.5
v -2.5 8 1.5
v -1.5 2 1.5
v -1.5 3 1.5
v -1.5 6 1.5
v -1.5 7 1.5
v -0.5 3 1.5
v -0.5 6 1.5
v 0.5 3 1.5
v 0.5 6 1.5
v 1.5 2 1.5
v 1.5 3 1.5
v 1.5 6 1.5
v 1.5 7 1.5
v 2.5 1 1.5
v 2.5 8 1.5
v -2.5 0 0.5
v -2.5 1 0.5
v -2.5 8 0.5
v -2.5 9 0.5
v 2.5 0 0.5
v 2.5 1 0.5
v 2.5 8 0.5
v 2.5 9 0.5
v -0.5 1 -0.5
v -0.5 8 -0.5
v -0.5 9 -0.5
v -0.5 10 -0.5
v 0.5 1 -0.5
v 0.5 8 -0.5
v 0.5 9 -0.5
v 0.5 10 -0.5
v -2.5 1 0.5
v -2.5 8 0.5
v -1.5 2 0.5
v -1.5 3 0.5
v -1.5 6 0.5
v -1.5 7 0.5
v -0.5 3 0.5
v -0.5 6 0.5
v 0.5 3 0.5
v 0.5 6 0.5
v 1.5 2 0.5
v 1.5 3 0.5
v 1.5 6 0.5
v 1.5 7 0.5
v 2.5 1 0.5
v 2.5 8 0.5
v -2.5 0 -0.5
v -2.5 1 -0.5
v -2.5 8 -0.5
v -2.5 9 -0.5
v -0.5 0 -0.5
v -0.5 1 -0.5
v -0.5 8 -0.5
v -0.5 9 -0.5
v 0.5 0 -0.5
v 0.5 1 -0.5
v 0.5 8 -0.5
v 0.5 9 -0.5
v 2.5 0 -0.5
v 2.5 1 -0.5
v 2.5 8 -0.5
v 2.5 9 -0.5
v -0.5 0 -1.5
v -0.5 10 -1.5
v 0.5 0 -1.5
v 0.5 10 -1.5
v -2.5 0 0.5
v 2.5 0 0.5
v -2.5 0 -0.5
v -0.5 0 -0.5
v 0.5 0 -0.5
v 2.5 0 -0.5
v -0.5 0 -1.5
v 0.5 0 -1.5
v -2.5 1 1.5
v 2.5 1 1.5
v -2.5 1 0.5
v 2.5 1 0.5
v -2.5 8 0.5
v 2.5 8 0.5
v -2.5 8 -0.5
v -0.5 8 -0.5
v 0.5 8 -0.5
v 2.5 8 -0.5
v -2.5 1 0.5
v 2.5 1 0.5
v -2.5 1 -0.5
v -0.5 1 -0.5
v 0.5 1 -0.5
v 2.5 1 -0.5
v -2.5 8 1.5
v 2.5 8 1.5
v -2.5 8 0.5
v 2.5 8 0.5
v -2.5 9 0.5
v 2.5 9 0.5
v -2.5 9 -0.5
v -0.5 9 -0.5
v 0.5 9 -0.5
v 2.5 9 -0.5
v -0.5 10 -0.5
v 0.5 10 -0.5
v -0.5 10 -1.5
v 0.5 10 -1.5

# faces
f 4/3/1 2/3/1 1/3/1
f 5/3/1 2/3/1 4/3/1
f 6/3/1 4/3/1 3/3/1
f 7/3/1 4/3/1 6/3/1
f 9/3/1 8/3/1 7/3/1
f 10/3/1 8/3/1 9/3/1
f 13/2/1 12/2/1 11/2/1
f 14/2/1 12/2/1 13/2/1
f 15/2/1 12/2/1 14/2/1
f 16/2/1 12/2/1 15/2/1
f 17/2/1 12/2/1 16/2/1
f 18/2/2 19/2/2 20/2/2
f 20/2/2 19/2/2 21/2/2
f 21/2/2 19/2/2 22/2/2
f 22/2/2 19/2/2 23/2/2
f 23/2/2 19/2/2 24/2/2
f 25/3/2 26/3/2 28/3/2
f 28/3/2 26/3/2 29/3/2
f 27/3/2 28/3/2 30/3/2
f 30/3/2 28/3/2 31/3/2
f 31/3/2 32/3/2 33/3/2
f 33/3/2 32/3/2 34/3/2
f 37/3/3 36/3/3 35/3/3
f 38/3/3 36/3/3 37/3/3
f 39/3/3 36/3/3 38/3/3
f 40/3/3 36/3/3 39/3/3
f 41/1/3 38/1/3 37/1/3
f 41/3/3 39/3/3 38/3/3
f 42/1/3 40/1/3 39/1/3
f 42/3/3 39/3/3 41/3/3
f 43/1/3 41/1/3 37/1/3
f 43/1/3 42/1/3 41/1/3
f 44/1/3 40/1/3 42/1/3
f 44/1/3 42/1/3 43/1/3
f 45/3/3 37/3/3 35/3/3
f 45/1/3 43/1/3 37/1/3
f 46/3/3 44/3/3 43/3/3
f 46/1/3 43/1/3 45/1/3
f 47/1/3 40/1/3 44/1/3
f 47/3/3 44/3/3 46/3/3
f 48/3/3 36/3/3 40/3/3
f 48/1/3 40/1/3 47/1/3
f 49/3/3 46/3/3 45/3/3
f 49/3/3 47/3/3 46/3/3
f 49/3/3 48/3/3 47/3/3
f 49/3/3 45/3/3 35/3/3
f 50/3/3 36/3/3 48/3/3
f 50/3/3 48/3/3 49/3/3
f 55/3/3 52/3/3 51/3/3
f 56/3/3 52/3/3 55/3/3
f 57/3/3 54/3/3 53/3/3
f 58/3/3 54/3/3 57/3/3
f 63/2/3 60/2/3 59/2/3
f 64/2/3 60/2/3 63/2/3
f 65/2/3 62/2/3 61/2/3
f 66/2/3 62/2/3 65/2/3
f 67/3/4 68/3/4 69/3/4
f 69/3/4 68/3/4 70/3/4
f 70/3/4 68/3/4 71/3/4
f 71/3/4 68/3/4 72/3/4
f 69/1/4 70/1/4 73/1/4
f 70/3/4 71/3/4 73/3/4
f 71/1/4 72/1/4 74/1/4
f 73/3/4 71/3/4 74/3/4
f 69/1/4 73/1/4 75/1/4
f 73/1/4 74/1/4 75/1/4
f 74/1/4 72/1/4 76/1/4
f 75/1/4 74/1/4 76/1/4
f 67/3/4 69/3/4 77/3/4
f 69/1/4 75/1/4 77/1/4
f 75/3/4 76/3/4 78/3/4
f 77/1/4 75/1/4 78/1/4
f 76/1/4 72/1/4 79/1/4
f 78/3/4 76/3/4 79/3/4
f 72/3/4 68/3/4 80/3/4
f 79/1/4 72/1/4 80/1/4
f 77/3/4 78/3/4 81/3/4
f 78/3/4 79/3/4 81/3/4
f 79/3/4 80/3/4 81/3/4
f 67/3/4 77/3/4 81/3/4
f 80/3/4 68/3/4 82/3/4
f 81/3/4 80/3/4 82/3/4
f 83/3/4 84/3/4 87/3/4
f 87/3/4 84/3/4 88/3/4
f 85/3/4 86/3/4 89/3/4
f 89/3/4 86/3/4 90/3/4
f 91/3/4 92/3/4 95/3/4
f 95/3/4 92/3/4 96/3/4
f 93/3/4 94/3/4 97/3/4
f 97/3/4 94/3/4 98/3/4
f 99/2/4 100/2/4 101/2/4
f 101/2/4 100/2/4 102/2/4
f 105/3/5 104/3/5 103/3/5
f 106/3/5 104/3/5 105/3/5
f 107/3/5 104/3/5 106/3/5
f 108/3/5 104/3/5 107/3/5
f 109/2/5 107/2/5 106/2/5
f 110/2/5 107/2/5 109/2/5
f 113/3/5 112/3/5 111/3/5
f 114/3/5 112/3/5 113/3/5
f 117/3/5 116/3/5 115/3/5
f 118/3/5 116/3/5 117/3/5
f 119/3/5 116/3/5 118/3/5
f 120/3/5 116/3/5 119/3/5
f 121/3/6 122/3/6 123/3/6
f 123/3/6 122/3/6 124/3/6
f 124/3/6 122/3/6 125/3/6
f 125/3/6 122/3/6 126/3/6
f 127/3/6 128/3/6 129/3/6
f 129/3/6 128/3/6 130/3/6
f 131/3/6 132/3/6 133/3/6
f 133/3/6 132/3/6 134/3/6
f 134/3/6 132/3/6 135/3/6
f 135/3/6 132/3/6 136/3/6
f 137/2/6 138/2/6 139/2/6
f 139/2/6 138/2/6 140/2/6
